<svg width="40" height="40" viewBox="0 0 40 40" fill="none" xmlns="http://www.w3.org/2000/svg">
<path d="M32.7719 0C28.7798 0 25.5436 3.23629 25.5436 7.22828C25.5436 7.3969 25.5572 7.56203 25.5692 7.72758L12.2165 13.9946C10.9189 12.7548 9.16453 11.9892 7.22837 11.9892C3.23629 11.9893 0 15.2256 0 19.2176C0 23.2097 3.23629 26.4459 7.22828 26.4459C8.48759 26.4459 9.67145 26.1223 10.7023 25.5564L16.4819 30.4264C16.2288 31.1632 16.0853 31.9499 16.0853 32.772C16.0853 36.764 19.3216 40.0002 23.3136 40.0002C27.3058 40.0002 30.5419 36.764 30.5419 32.772C30.5419 28.78 27.3057 25.5437 23.3136 25.5437C22.0544 25.5437 20.8705 25.8673 19.8395 26.4331L14.06 21.5631C14.3131 20.8268 14.4566 20.0396 14.4566 19.2176C14.4566 19.0491 14.443 18.8843 14.4311 18.7183L27.7837 12.4513C29.0813 13.6911 30.8356 14.4567 32.7717 14.4567C36.7637 14.4567 40 11.2204 40 7.22837C40 3.23638 36.7639 0 32.7719 0Z" fill="white"/>
</svg>
