<svg width="160" height="48" viewBox="0 0 160 48" fill="none" xmlns="http://www.w3.org/2000/svg">
<g clip-path="url(#clip0_31_725)">
<path d="M38.8739 45.0472C38.2596 45.1502 38.1913 45.1845 38.1913 45.8026V46.6609C38.1913 47.0386 38.1913 47.382 38.2596 47.6566C37.6453 47.794 36.7579 48.0343 35.9047 48.0343C33.5497 48.0343 32.1504 46.5923 32.1504 44.4978C32.1504 42.3004 33.9251 41.03 36.007 41.03C37.0309 41.03 37.8159 41.236 38.1231 41.2704C38.1572 41.6481 38.1913 42.3348 38.2937 42.9528L37.9524 43.0214C37.7135 42.1287 37.4064 41.7511 36.7579 41.5451C36.519 41.4764 36.1094 41.4077 35.8364 41.4077C34.3347 41.4077 33.3108 42.5064 33.3108 44.3605C33.3108 46.0429 34.1299 47.6223 36.0412 47.6223C36.3483 47.6223 36.6896 47.5536 36.8603 47.4506C37.0651 47.3476 37.2016 47.2103 37.2016 46.7983V45.9399C37.2016 45.1845 37.0992 45.1159 36.1436 45.0472V44.7382H38.8739V45.0472Z" fill="white"/>
<path d="M44.9147 47.9657C44.7441 47.9657 44.5052 47.8971 44.4028 47.7597C44.2663 47.6224 44.198 47.485 44.1639 47.3134C43.7543 47.5881 43.2424 47.9657 42.9693 47.9657C42.2185 47.9657 41.7065 47.3477 41.7065 46.6954C41.7065 46.1803 41.9796 45.8713 42.5257 45.6653C43.14 45.4593 43.925 45.1846 44.1639 44.9786V44.7383C44.1639 44.0516 43.8226 43.6396 43.3106 43.6396C43.0717 43.6396 42.9352 43.7426 42.8328 43.8799C42.7304 44.0172 42.6622 44.2576 42.5598 44.5666C42.4915 44.7383 42.3891 44.8413 42.2185 44.8413C42.0137 44.8413 41.7407 44.6353 41.7407 44.3606C41.7407 44.2232 41.8772 44.0859 42.082 43.9486C42.4233 43.7082 43.0035 43.3649 43.5837 43.2275C43.925 43.2275 44.2321 43.3305 44.471 43.5022C44.8465 43.8112 45.0171 44.1889 45.0171 44.7039V46.661C45.0171 47.1417 45.1878 47.279 45.3584 47.279C45.4949 47.279 45.5973 47.2447 45.7338 47.176L45.8362 47.485L44.9147 47.9657ZM44.1298 45.3563C43.925 45.4593 43.4813 45.6653 43.2424 45.7683C42.867 45.94 42.628 46.146 42.628 46.5237C42.628 47.073 43.0376 47.3134 43.3448 47.3134C43.5837 47.3134 43.925 47.176 44.1298 46.97C44.1298 46.4893 44.1298 45.8713 44.1298 45.3563Z" fill="white"/>
<path d="M50.6148 43.1931C51.9117 43.1931 52.8673 44.1888 52.8673 45.4935C52.8673 47.1759 51.6387 47.9656 50.6148 47.9656C49.1813 47.9656 48.2939 46.7983 48.2939 45.6652C48.2939 43.9828 49.5909 43.1931 50.6148 43.1931ZM50.4782 43.5708C49.898 43.5708 49.352 44.1545 49.352 45.3562C49.352 46.6609 49.898 47.6223 50.7172 47.6223C51.2974 47.6223 51.8093 47.1759 51.8093 45.7682C51.8093 44.4978 51.3315 43.5708 50.4782 43.5708Z" fill="white"/>
<path d="M61.1949 47.8627V47.5537C61.7751 47.485 61.8433 47.4507 61.8433 46.7296V45.0129C61.8433 44.2575 61.5703 43.8455 60.9901 43.8455C60.6488 43.8455 60.3075 44.0172 59.9321 44.3262C59.9321 44.4635 59.9662 44.5665 59.9662 44.7725V46.7983C59.9662 47.4507 60.0345 47.485 60.5805 47.5537V47.8627H58.3621V47.5537C58.9764 47.485 59.0447 47.4507 59.0447 46.7983V44.9786C59.0447 44.2232 58.8058 43.8455 58.2256 43.8455C57.8502 43.8455 57.4747 44.0859 57.1676 44.3262V46.764C57.1676 47.4163 57.2358 47.485 57.7819 47.5193V47.8283H55.5635V47.5193C56.2119 47.4507 56.2802 47.4163 56.2802 46.7296V44.6352C56.2802 43.9828 56.2461 43.9485 55.7 43.8455V43.5708C56.2119 43.5022 56.6898 43.3648 57.2017 43.1588C57.2017 43.3992 57.2017 43.7425 57.2017 43.9829C57.4065 43.8112 57.6454 43.6395 57.9526 43.4678C58.2256 43.2962 58.4645 43.1931 58.7717 43.1931C59.2836 43.1931 59.6932 43.5022 59.8979 44.0172C60.171 43.8112 60.444 43.6395 60.6829 43.4678C60.9218 43.3305 61.1949 43.1931 61.502 43.1931C62.3212 43.1931 62.799 43.7768 62.799 44.8069V46.7983C62.799 47.4507 62.8672 47.485 63.4133 47.5537V47.8627H61.1949Z" fill="white"/>
<path d="M69.7952 46.9699C69.1468 47.8283 68.3959 48 68.0546 48C66.7918 48 66.0068 46.9699 66.0068 45.7682C66.0068 45.0472 66.2799 44.3948 66.6894 43.9485C67.1331 43.4678 67.6792 43.1931 68.2253 43.1931C69.1468 43.1931 69.8294 43.9828 69.8294 44.8069C69.8294 45.0129 69.7952 45.1159 69.6246 45.1502C69.4198 45.1845 68.0887 45.2875 66.8942 45.3219C66.8601 46.6609 67.6792 47.2103 68.3959 47.2103C68.8055 47.2103 69.215 47.0386 69.5905 46.6953L69.7952 46.9699ZM68.0205 43.6051C67.5768 43.6051 67.1331 44.0515 66.9966 44.8755C67.5427 44.8755 68.0887 44.8755 68.669 44.8412C68.8396 44.8412 68.9079 44.8068 68.9079 44.6352C68.9079 44.0858 68.5666 43.6051 68.0205 43.6051Z" fill="white"/>
<path d="M72.5601 47.8627V47.5537C73.1744 47.4851 73.2426 47.4507 73.2426 46.7297V44.6353C73.2426 43.9829 73.2085 43.9486 72.6283 43.8456V43.5709C73.1744 43.4679 73.6863 43.3305 74.1642 43.1589C74.1642 43.6052 74.1642 44.0172 74.1642 44.4636V46.7297C74.1642 47.4164 74.2324 47.4851 74.8809 47.5537V47.8627H72.5601ZM73.6522 42.2318C73.345 42.2318 73.072 41.9572 73.072 41.6481C73.072 41.3048 73.345 41.0645 73.6522 41.0645C73.9594 41.0645 74.2324 41.3048 74.2324 41.6481C74.2324 41.9572 73.9594 42.2318 73.6522 42.2318Z" fill="white"/>
<path d="M91.229 41.4421C90.5122 41.5451 90.4099 41.6481 90.1368 42.4722C89.7955 43.4679 89.0105 46.043 88.4303 47.9314H88.0549C87.5088 46.352 86.8604 44.4293 86.3143 42.9185C85.7341 44.6696 85.1539 46.3863 84.6078 47.9314H84.2324C83.7204 46.2147 83.1402 44.2576 82.5942 42.4378C82.3211 41.6138 82.2187 41.4765 81.5361 41.4078V41.0988H84.1641V41.4078C83.4133 41.4765 83.3791 41.6138 83.5157 42.1288C83.8911 43.5022 84.3006 44.8413 84.7102 46.2147C85.2563 44.6009 85.8706 42.8499 86.3825 41.1675H86.758C87.3382 42.8842 87.9184 44.4979 88.4986 46.2147C88.9081 44.8756 89.4884 43.0559 89.6931 42.2318C89.8297 41.6481 89.7614 41.4765 88.874 41.3735V41.0645H91.2631V41.4421H91.229Z" fill="white"/>
<path d="M96.5189 46.9699C95.8704 47.8283 95.1195 48 94.7783 48C93.5155 48 92.7305 46.9699 92.7305 45.7682C92.7305 45.0472 93.0035 44.3948 93.4131 43.9485C93.8568 43.4678 94.4028 43.1931 94.9489 43.1931C95.8704 43.1931 96.553 43.9828 96.553 44.8069C96.553 45.0129 96.5189 45.1159 96.3482 45.1502C96.1434 45.1845 94.8124 45.2875 93.6178 45.3219C93.5837 46.6609 94.4028 47.2103 95.1195 47.2103C95.5291 47.2103 95.9387 47.0386 96.3141 46.6953L96.5189 46.9699ZM94.7441 43.6051C94.3004 43.6051 93.8567 44.0515 93.7202 44.8755C94.2663 44.8755 94.8124 44.8755 95.3926 44.8412C95.5632 44.8412 95.6315 44.8068 95.6315 44.6352C95.5974 44.0858 95.2902 43.6051 94.7441 43.6051Z" fill="white"/>
<path d="M101.331 47.8627C101.161 47.9657 100.99 48 100.888 48C100.205 48 99.8295 47.588 99.8295 46.764V43.7769H99.1469L99.1128 43.6395L99.3858 43.3305H99.8636V42.4721C100.103 42.2661 100.41 41.9914 100.649 41.7511L100.785 41.7854C100.751 42.1975 100.751 42.7811 100.751 43.3305H101.877C101.98 43.4335 101.946 43.6738 101.809 43.7769H100.717V46.3863C100.717 47.2103 101.058 47.3477 101.297 47.3477C101.536 47.3477 101.741 47.279 101.911 47.2103L102.014 47.485L101.331 47.8627Z" fill="white"/>
<path d="M104.334 47.8627V47.5537C104.983 47.485 105.051 47.4507 105.051 46.764V41.8541C105.051 41.2361 104.983 41.1674 104.369 41.0987V40.8241C104.949 40.7554 105.597 40.6181 105.973 40.4807C105.973 40.9614 105.973 41.4421 105.973 41.9228V46.764C105.973 47.4507 106.041 47.485 106.689 47.5537V47.8627H104.334Z" fill="white"/>
<path d="M112.526 47.9657C112.355 47.9657 112.116 47.8971 112.014 47.7597C111.877 47.6224 111.809 47.485 111.775 47.3134C111.365 47.5881 110.853 47.9657 110.58 47.9657C109.829 47.9657 109.317 47.3477 109.317 46.6954C109.317 46.1803 109.59 45.8713 110.137 45.6653C110.751 45.4593 111.536 45.1846 111.775 44.9786V44.7383C111.775 44.0516 111.433 43.6396 110.921 43.6396C110.683 43.6396 110.546 43.7426 110.444 43.8799C110.341 44.0172 110.273 44.2576 110.171 44.5666C110.102 44.7383 110 44.8413 109.829 44.8413C109.625 44.8413 109.352 44.6353 109.352 44.3606C109.352 44.2232 109.488 44.0859 109.693 43.9486C110.034 43.7082 110.614 43.3649 111.195 43.2275C111.536 43.2275 111.843 43.3305 112.082 43.5022C112.457 43.8112 112.628 44.1889 112.628 44.7039V46.661C112.628 47.1417 112.799 47.279 112.969 47.279C113.106 47.279 113.208 47.2447 113.345 47.176L113.447 47.485L112.526 47.9657ZM111.741 45.3563C111.536 45.4593 111.092 45.6653 110.853 45.7683C110.478 45.94 110.239 46.146 110.239 46.5237C110.239 47.073 110.648 47.3134 110.956 47.3134C111.195 47.3134 111.536 47.176 111.741 46.97C111.741 46.4893 111.741 45.8713 111.741 45.3563Z" fill="white"/>
<path d="M118.84 47.8627V47.5537C119.42 47.485 119.454 47.4163 119.454 46.7296V45.0129C119.454 44.2919 119.181 43.8455 118.567 43.8455C118.157 43.8455 117.816 44.0515 117.509 44.3262V46.764C117.509 47.4507 117.577 47.485 118.123 47.5537V47.8627H115.871V47.5537C116.519 47.485 116.587 47.4507 116.587 46.764V44.6352C116.587 43.9828 116.519 43.9485 115.973 43.8455V43.5708C116.485 43.5022 117.031 43.3648 117.475 43.1588C117.475 43.3648 117.475 43.7082 117.475 43.9485C117.679 43.8112 117.918 43.6395 118.157 43.4678C118.464 43.2962 118.703 43.1588 119.011 43.1588C119.83 43.1588 120.342 43.7768 120.342 44.7725V46.7296C120.342 47.4163 120.41 47.4507 120.99 47.5193V47.8283H118.84V47.8627Z" fill="white"/>
<path d="M128.669 47.5881C128.464 47.6224 127.645 47.7598 126.997 47.9658C126.997 47.7598 126.997 47.5194 126.997 47.3134C126.826 47.4164 126.553 47.5881 126.348 47.6911C125.973 47.8971 125.7 47.9658 125.597 47.9658C124.778 47.9658 123.652 47.1417 123.652 45.6997C123.652 44.2576 124.915 43.1932 126.348 43.1932C126.485 43.1932 126.792 43.1932 126.997 43.2963V41.8542C126.997 41.2018 126.928 41.2018 126.212 41.1332V40.8585C126.758 40.7898 127.509 40.6525 127.884 40.5151C127.884 40.8928 127.884 41.3392 127.884 41.7512V46.6611C127.884 47.2104 127.952 47.2791 128.328 47.3134L128.635 47.3478V47.5881H128.669ZM126.997 44.1203C126.792 43.7769 126.382 43.6053 125.973 43.6053C125.495 43.6053 124.676 43.9143 124.676 45.3907C124.676 46.6611 125.427 47.2791 126.075 47.3134C126.416 47.3134 126.758 47.1417 126.997 46.9701V44.1203Z" fill="white"/>
<path d="M16.5527 1.27039C16.5527 1.27039 17.8496 2.26609 18.6687 2.98712C18.6004 3.22747 18.4298 3.33047 18.1226 3.33047H0.341059L0.17041 2.71245H9.14652C8.87348 1.81974 7.88372 0.755365 7.06461 0.171674L7.23526 0C10.6482 0.274678 10.9895 2.09442 10.2387 2.71245H15.3581L16.5527 1.27039ZM16.4844 9.23605L18.3957 10.6438C18.2591 10.8155 17.952 10.9871 17.5424 11.0901V17.0987C17.5424 18.3004 17.2694 18.9871 15.1533 19.1931C15.1192 18.6781 15.0168 18.3348 14.7438 18.0944C14.4708 17.8197 13.9929 17.6137 13.0714 17.5107V17.2017C13.0714 17.2017 14.9827 17.3391 15.4605 17.3391C15.8018 17.3391 15.9042 17.2017 15.9042 16.927V10.7811H3.13969V18.6094C3.13969 18.7811 2.4571 19.1588 1.77451 19.1588H1.50147V9.37339L3.27621 10.1631H15.6994L16.4844 9.23605ZM12.7301 9.30472V8.48069H6.14311V8.99571C6.14311 9.13305 5.39225 9.47639 4.77792 9.47639H4.53901V4.15451L6.2455 4.90987H12.5254L13.3786 3.98283L15.2557 5.39056C15.1192 5.56223 14.812 5.73391 14.4025 5.83691V8.92704C14.3342 9.03004 13.5151 9.30472 13.0032 9.30472H12.7301ZM13.0714 16.515C13.0714 16.6524 12.2865 16.9957 11.7745 16.9957H11.5356V16.0343H7.23526V16.7897C7.23526 16.927 6.55266 17.2704 5.93833 17.2704H5.69942V11.6738L7.33765 12.3948H11.3649L12.1499 11.5708L13.8564 12.8412C13.7199 12.9785 13.4127 13.1502 13.0714 13.2189V16.515ZM12.7301 7.897V5.49356H6.14311V7.897H12.7301ZM11.5356 15.4163V13.0129H7.23526V15.4163H11.5356Z" fill="white"/>
<path d="M16.5529 40.1716C16.5529 40.1716 17.7816 41.133 18.5324 41.7854C18.4983 42.0257 18.2594 42.1287 17.9863 42.1287H9.62457C8.97611 44.8755 7.13311 46.7296 0.170648 48.0343L0 47.6566C5.32423 46.1802 7.13311 44.4978 7.78157 42.1287H0.853242L0.682594 41.545H7.95222C8.08874 40.8583 8.157 40.0686 8.19113 39.2102L10.7167 39.4506C10.6826 39.7253 10.4437 39.9313 10 39.9999C9.93174 40.5493 9.86348 41.0643 9.79522 41.5793H15.4949L16.5529 40.1716ZM16.6894 37.0128C16.6894 37.0128 17.884 37.9399 18.6348 38.6266C18.6007 38.8669 18.3618 38.9699 18.0887 38.9699H0.307167L0.136519 38.3862H8.43003V35.9484H2.38908L2.21843 35.3647H8.3959V32.9613H1.19454L1.02389 32.3776H10.8874C11.3993 31.3819 11.9795 30.0085 12.3208 29.0128L14.744 29.6652C14.6416 29.9055 14.4027 30.0429 13.959 30.0429C13.3447 30.7639 12.3891 31.6566 11.4676 32.3776H15.0853L16.1433 31.0729C16.1433 31.0729 17.3379 31.9656 18.0887 32.6523C18.0205 32.8926 17.8157 32.9613 17.5085 32.9613H10.1365V35.2961H13.8567L14.8805 34.0257C14.8805 34.0257 16.041 34.8841 16.7577 35.5364C16.6894 35.7768 16.5188 35.8798 16.2116 35.8798H10.1365V38.3175H15.5973L16.6894 37.0128ZM4.57338 29.1158C8.97611 29.9399 7.57679 33.0987 5.9727 31.9656C5.80205 31.0386 5.05119 29.9055 4.3686 29.2875L4.57338 29.1158ZM10.8191 42.8497C19.215 44.3948 19.1809 48.5836 17.0307 47.8626C15.7679 46.2145 12.7986 44.1544 10.6485 43.0901L10.8191 42.8497Z" fill="white"/>
<path d="M141.126 5.80253C145.631 6.24888 144.505 9.44201 142.867 8.44631C142.594 7.5536 141.706 6.55789 140.956 5.9742L141.126 5.80253ZM146.519 4.60081C145.802 7.17592 144.437 11.8798 144.198 12.9098C144.061 13.5622 143.925 14.2145 143.925 14.7296C143.959 15.7253 144.607 16.618 144.539 18.3691C144.505 19.2618 144.027 19.8798 143.242 19.8798C142.867 19.8798 142.56 19.5364 142.457 18.8154C142.799 16.721 142.662 14.9699 142.218 14.6609C141.945 14.4549 141.638 14.3862 141.229 14.3519V13.9742H142.116C142.355 13.9742 142.457 13.9399 142.628 13.5279C142.969 12.8068 142.969 12.8068 146.143 4.53214L146.519 4.60081ZM142.491 1.06433C147.27 1.64802 146.109 4.97849 144.437 3.91412C144.13 2.95274 143.14 1.85403 142.321 1.236L142.491 1.06433ZM148.123 15.6223C148.703 17.6824 148.055 19.0901 147.27 19.6051C146.792 19.9485 146.041 19.9485 145.802 19.4334C145.597 18.9527 145.904 18.5064 146.348 18.266C147.031 17.854 147.747 16.7553 147.747 15.6223H148.123ZM150.683 12.1888C153.686 13.8369 152.355 16.1716 151.297 15.1073C151.297 14.7982 151.263 14.4549 151.16 14.1115C150.171 14.3862 148.669 14.8326 147.133 15.2103C147.031 15.3819 146.894 15.5536 146.792 15.5879L145.938 13.9399C145.938 13.9399 146.28 13.8712 146.45 13.7682C147.372 13.1845 148.464 12.1888 149.42 11.1588C148.771 11.3304 147.952 11.5708 147.201 11.7424C147.065 11.9828 146.928 12.1201 146.792 12.1888L145.973 10.5751C145.973 10.5751 146.28 10.5064 146.416 10.4377C147.474 9.88837 148.805 8.30897 149.317 7.48493L151.126 8.44631C151.024 8.61798 150.785 8.78965 150.341 8.72098C149.659 9.30467 148.635 10.0257 147.611 10.6094C148.293 10.5751 149.147 10.5407 150 10.5064C150.444 9.95704 150.853 9.44201 151.092 9.03L152.901 10.0257C152.901 10.2317 152.628 10.4034 152.184 10.3004C151.126 11.3991 149.317 12.9098 147.611 13.9399C148.566 13.8712 149.795 13.7682 151.092 13.6652C150.921 13.1502 150.683 12.6695 150.444 12.2918L150.683 12.1888ZM149.147 7.58794C149.147 7.69094 148.669 7.99995 147.884 7.99995H147.611V1.27034L149.386 1.99137H156.553L157.304 1.09867L158.908 2.33472C158.771 2.50639 158.566 2.6094 158.157 2.67806V7.38193C158.157 7.48493 157.577 7.79394 156.86 7.79394H156.587V7.17592H149.147V7.58794ZM149.147 2.6094V4.32613H156.621V2.6094H149.147ZM156.621 6.55789V4.94416H149.147V6.52356H156.621V6.55789ZM150.478 15.7253C153.481 18.163 151.672 20.8412 150.546 19.4678C150.785 18.266 150.546 16.7897 150.205 15.8283L150.478 15.7253ZM152.73 13.9055C152.73 13.9055 153.106 13.8369 153.242 13.7339C154.198 13.1502 155.256 12.0515 156.177 10.9871C155.427 11.1931 154.539 11.4334 153.652 11.6394C153.549 11.9141 153.379 12.0858 153.276 12.1545L152.423 10.5407C152.423 10.5407 152.764 10.4721 152.867 10.4034C153.822 9.85403 154.949 8.27463 155.392 7.48493L157.235 8.37764C157.133 8.54931 156.894 8.72098 156.45 8.65231C155.836 9.236 154.949 9.9227 154.027 10.4721C154.812 10.4377 155.734 10.4034 156.723 10.3691C157.133 9.8197 157.474 9.33901 157.713 8.96133L159.522 9.95704C159.386 10.1287 159.147 10.3004 158.703 10.1974C157.679 11.3304 155.904 12.8068 154.232 13.8712C155.256 13.8025 156.621 13.6652 157.986 13.5279C157.747 12.9785 157.44 12.5321 157.201 12.1201L157.44 11.9828C160.853 13.5965 159.59 16.0686 158.43 15.0386C158.396 14.6952 158.328 14.3175 158.191 13.9399C157.201 14.2145 155.597 14.6952 153.959 15.0386C153.822 15.2789 153.72 15.4163 153.584 15.4849L152.73 13.9055ZM153.447 15.5536C157.406 17.5794 155.768 20.7382 154.437 19.3991C154.505 18.1287 153.857 16.6523 153.174 15.6909L153.447 15.5536ZM156.485 15.4506C161.331 17.339 159.932 20.7725 158.362 19.5364C158.191 18.2317 157.167 16.5836 156.246 15.5879L156.485 15.4506Z" fill="white"/>
<path d="M145.222 42.8841C146.143 42.6094 147.099 42.3004 148.089 41.9914L148.157 42.2661C146.894 43.0558 145.051 44.1888 142.457 45.5279C142.389 45.8025 142.218 46.0085 142.014 46.0772L140.921 44.0515C141.502 43.9141 142.491 43.6738 143.618 43.3648V36.1888H141.126L140.956 35.6051H143.583V30.2146L145.904 30.4549C145.836 30.7296 145.665 30.9699 145.153 31.0386V35.6051H145.938L146.826 34.3004C146.826 34.3004 147.85 35.2274 148.43 35.8798C148.396 36.1201 148.191 36.2231 147.884 36.2231H145.153V42.8841H145.222ZM159.215 46.2832C159.829 46.4549 160 46.6609 160 46.9699C160 47.794 159.044 48.0343 154.642 48H151.604C149.488 48 148.771 47.6223 148.771 46.0772V38.1459L146.894 38.9699L146.45 38.4892L148.737 37.4935V32.515L151.024 32.7553C150.99 33.03 150.785 33.236 150.307 33.3047V36.8068L152.799 35.7081V29.6309L155.085 29.9055C155.051 30.1802 154.846 30.3862 154.334 30.4892V35.0901L156.996 33.9227L157.065 33.8884L157.918 32.9957L159.488 34.6781C159.351 34.8497 159.113 34.9184 158.703 34.9184C158.259 37.3562 157.406 40.9613 156.246 43.3648L155.973 43.2274C156.519 40.6867 156.928 37.0815 157.065 34.5751L154.334 35.7768V44.1201C154.334 44.2918 153.686 44.6695 153.106 44.6695H152.833V36.4635L150.341 37.5279V45.7682C150.341 46.3862 150.58 46.5922 151.775 46.5922H154.744C156.041 46.5922 157.065 46.5579 157.508 46.5236C157.781 46.4892 157.952 46.3862 158.089 46.2146C158.259 45.8369 158.566 44.7382 158.908 43.3304H159.181L159.215 46.2832Z" fill="white"/>
<path d="M127.611 12.1897H33.2082C33.1059 12.1897 33.0376 12.1208 33.0376 12.0176C33.0376 11.9143 33.1059 11.8455 33.2082 11.8455H127.611C127.713 11.8455 127.782 11.9143 127.782 12.0176C127.782 12.1208 127.713 12.1897 127.611 12.1897Z" fill="white"/>
<path d="M42.4917 12.0172C42.4917 12.0172 46.1436 10.8498 49.5907 7.31331C50.6487 6.24893 52.4917 6.18026 53.5497 7.24464C55.6316 9.37339 59.0105 11.8798 62.56 12.0858L42.4917 12.0172Z" fill="white"/>
<path d="M93.2764 12.1202C93.2764 12.1202 96.1774 11.6738 98.703 10.3691C99.1467 10.1288 100.034 10.1288 100.478 10.3691C101.843 11.0215 104.505 12.1202 107.235 12.1888L93.2764 12.1202Z" fill="white"/>
<path d="M118.43 29.1854H55.0173C54.9149 29.1854 54.8467 29.1166 54.8467 29.0133C54.8467 28.91 54.9149 28.8412 55.0173 28.8412H118.43C118.533 28.8412 118.601 28.91 118.601 29.0133C118.601 29.1166 118.533 29.1854 118.43 29.1854Z" fill="white"/>
<path d="M74.6416 28.9785C74.6416 28.9785 78.1911 28.2919 81.0921 26.1631C81.3651 25.9571 81.9454 25.9228 82.2184 26.1288C83.5153 27.0215 86.7918 29.0816 90.2047 29.1846L74.6416 28.9785Z" fill="white"/>
<path d="M86.0749 20.7391H42.7302C42.6278 20.7391 42.5596 20.6703 42.5596 20.567C42.5596 20.4637 42.6278 20.3949 42.7302 20.3949H86.0749C86.1773 20.3949 86.2456 20.4637 86.2456 20.567C86.2456 20.6703 86.1773 20.7391 86.0749 20.7391Z" fill="white"/>
</g>
<defs>
<clipPath id="clip0_31_725">
<rect width="160" height="48" fill="white"/>
</clipPath>
</defs>
</svg>
