<svg width="40" height="40" viewBox="0 0 40 40" fill="none" xmlns="http://www.w3.org/2000/svg">
<path d="M20.0444 0C8.75556 0 0 8.25934 0 19.4081C0 25.2403 2.4 30.2813 6.29333 33.7575C6.96889 34.3621 6.82667 34.7177 6.94222 38.4517C6.96889 39.3408 7.71556 40.0343 8.60444 39.9987C8.80889 39.9898 9.00444 39.9454 9.19111 39.8653C13.4578 37.9894 13.5111 37.8383 14.24 38.0339C26.6044 41.4479 40 33.5352 40 19.4081C40 8.25934 31.3422 0 20.0444 0ZM32.08 14.9362L26.1956 24.2624C25.3067 25.6671 23.44 26.0849 22.0356 25.1959C21.9733 25.1514 21.9111 25.1159 21.8489 25.0625L17.1644 21.5596C16.7378 21.2396 16.1422 21.2396 15.7156 21.5596L9.39556 26.3517C8.55111 26.9918 7.44889 25.9783 8.01778 25.0892L13.9022 15.763C14.7911 14.3583 16.6578 13.9404 18.0622 14.8295C18.1244 14.8739 18.1867 14.9184 18.2489 14.9628L22.9333 18.4657C23.36 18.7858 23.9556 18.7858 24.3822 18.4657L30.7022 13.6737C31.5467 13.0336 32.6489 14.0382 32.08 14.9362Z" fill="white"/>
</svg>
